<?xml version="1.0" standalone="no"?><!DOCTYPE svg PUBLIC "-//W3C//DTD SVG 1.1//EN" "http://www.w3.org/Graphics/SVG/1.1/DTD/svg11.dtd"><svg t="1641033137963" class="icon" viewBox="0 0 1024 1024" version="1.1" xmlns="http://www.w3.org/2000/svg" p-id="21051" xmlns:xlink="http://www.w3.org/1999/xlink" width="200" height="200"><defs><style type="text/css"></style></defs><path d="M257.243317 303.056224c-13.846356 0-25.071002 11.224646-25.071002 25.071002s11.224646 25.071002 25.071002 25.071002c13.845333 0 25.071002-11.224646 25.071002-25.071002S271.089673 303.056224 257.243317 303.056224zM257.243317 350.691127c-12.44238 0-22.562878-10.121522-22.562878-22.563902 0-12.443403 10.120498-22.563902 22.562878-22.563902s22.562878 10.120498 22.562878 22.563902C279.806195 340.569606 269.685697 350.691127 257.243317 350.691127z" p-id="21052" fill="#e6e6e6"></path><path d="M255.843434 309.422212l2.801812 0 0 20.205181-2.801812 0 0-20.205181Z" p-id="21053" fill="#e6e6e6"></path><path d="M255.941672 326.72632l20.203134 0 0 2.801812-20.203134 0 0-2.801812Z" p-id="21054" fill="#e6e6e6"></path><path d="M793.01165 64.157205 259.363607 64.157205c-24.554232 0-44.475957 19.919678-44.475957 44.472887l0 800.466947c0 24.558325 19.921725 44.478004 44.475957 44.478004L793.01165 953.575044c24.554232 0 44.462654-19.919678 44.462654-44.478004L837.474304 108.630093C837.474304 84.076884 817.565882 64.157205 793.01165 64.157205zM793.01165 909.098064 259.363607 909.098064 259.363607 108.630093 793.01165 108.630093 793.01165 909.098064z" p-id="21055" fill="#e6e6e6"></path><path d="M748.536716 153.097864 303.827285 153.097864l0 622.596887 444.709431 0L748.536716 153.097864zM704.072015 731.221864 348.303242 731.221864 348.303242 197.569728l355.768773 0L704.072015 731.221864z" p-id="21056" fill="#e6e6e6"></path><path d="M526.181489 797.923008c-24.554232 0-44.462654 19.919678-44.462654 44.473911 0 24.553209 19.908422 44.478004 44.462654 44.478004 24.552186 0 44.474934-19.924795 44.474934-44.478004C570.656423 817.842687 550.733675 797.923008 526.181489 797.923008z" p-id="21057" fill="#e6e6e6"></path></svg>